<?xml version="1.0" encoding="UTF-8"?><svg id="Layer_1" xmlns="http://www.w3.org/2000/svg" viewBox="0 0 491.151 462.515"><path d="M136.133,46.132c9.371-.531,28.52-1.562,36.975,1.079,9.712,3.034,9.064,20.217-2.165,21.99-30.731,4.854-80.771-11.414-87.258,36.02-2.402,17.563,1.28,35.145-.102,52.731-2.568,32.671-39.202,49.558-57.487,72.59,19.096,20.74,54.656,39.64,57.426,70.624,2.366,26.47-8.418,69.246,21.884,83.783,21.006,10.077,43.064,5.797,64.455,8.337,13.935,1.655,12.399,20.376,2.296,22.308-6.421,1.228-26.657.533-34.072.075-47.351-2.925-75.145-23.01-78.076-72.206-.788-13.233,1.372-28.283.108-41.201-1.78-18.188-37.291-41.103-49.986-54.507-18.836-19.889-8.558-27.616,7.643-42.898,11.707-11.043,40.747-30.568,42.342-46.888,2.496-25.547-5.243-53.063,7.19-77.343,14.37-28.061,39.747-32.846,68.824-34.494Z" fill="#fe0469"/><path d="M326.336,46.135c28.056-3.136,70.948-.111,90.07,23.119,23.815,28.929,11.105,55.877,14.658,87.487,1.974,17.563,27.816,34.288,39.939,45.769s28.485,22.553,15.219,39.907c-12.612,16.498-53,39.941-55.157,59.903-1.504,13.917.965,30.388.052,44.667-2.928,45.794-32.308,65.618-75.789,68.622-6.863.474-31.702,1.117-37.033-.513-8.185-2.503-9.69-15.203-2.239-19.974,5.535-3.544,19.103-1.317,26.358-1.82,29.817-2.067,61.203-5.654,65.029-41.812,1.967-18.59-2.088-39.113,1.594-57.109,5.446-26.616,40.622-44.473,56.126-64.852l-1.79-2.957c-15.882-15.445-44.931-34.2-52.484-55.524-9.504-26.832,8.348-65.462-13.872-89.447-15.72-16.968-53.907-10.384-74.606-12.276-8.335-.762-13.192-6.966-10.568-15.384,1.93-6.192,9.113-7.204,14.494-7.805Z" fill="#fe0469"/><path d="M156.329,142.056c.317,13.28,3.675,30.725-.616,43.411-5.783,17.094-37.17,28.896-31.699,49.388,1.113,4.169,9.105,13.441,12.33,17.012,5.971,6.61,20.888,15.036,13.505,25.188-9.356,12.866-27.096-8.325-33.399-15.861-16.25-19.427-19.98-38.552-2.985-59.271,4.343-5.294,20.854-18.67,22.386-23.4,4.533-13.99-6.016-42.827,3.399-52.959,9.499-10.223,40.227-.046,53.543-3.986,20.982-18.494,37.401-42.853,69.19-29.399,7.572,3.205,33.864,22.96,35.202,30.584,1.27,7.239-4.295,13.903-11.752,12.929-12.967-1.695-26.323-34.618-48.879-24.361-13.246,6.024-21.683,23.941-35.288,29.288-13.811,5.428-30.51,1.516-44.939,1.438Z" fill="#fe0469"/><path d="M335.969,319.341l-2.349-26.411c1.324-5.78,1.049-11.268,2.969-16.99,3.436-10.237,15.433-17.693,22.287-25.85,14.779-17.59,9.818-26.435-3.519-42.297-5.852-6.96-17.287-12.334-12.63-23.172,6.495-15.114,24.352,4.736,29.606,10.892,15.663,18.354,23.289,37.278,9.234,59.656-5.089,8.102-23.073,21.922-25.332,27.502-3.235,7.992-.338,15.671-.259,23.126.074,7.037.765,16.932-.022,23.556-2.493,20.971-43.04,5.51-57.056,11.04-6.88,2.715-20.313,21.242-29.473,26.883-19.967,12.296-37.444,6.073-53.83-7.98-4.004-3.434-18.679-17.639-19.296-21.838-1.279-8.693,4.686-13.932,13.206-11.996,5.926,1.346,20.539,21.198,30.569,25.787,20.564,9.408,33.782-22.908,49.494-29.578,15.07-6.398,30.779-1.744,46.402-2.329Z" fill="#fe0469"/><path d="M189.623,426.602c8.422-8.412,20.851,3.408,29.312,6.841,17.88,7.255,35.464,8.119,53.262.006,9.359-4.267,21.189-18.947,30.364-7.316,8.84,11.206-4.452,19.427-13.198,24.482-23.932,13.831-48.971,15.24-74.94,6.126-6.274-2.202-25.843-10.985-27.308-17.296-.978-4.213-.663-9.675,2.508-12.843Z" fill="#fe0469"/><path d="M235.929.342c19.419-1.996,53.672,4.71,66.531,20.836,7.37,9.243.27,20.584-11.627,18.68-4.622-.74-7.758-5.127-11.581-7.214-21.216-11.587-40.7-12.781-63-2.667-7.773,3.525-14.534,11.421-23.226,7.873-7.379-3.012-8.467-13.606-3.234-19.069C198.006,10.208,224.094,1.559,235.929.342Z" fill="#fe0569"/><path d="M319.096,94.306c17.427-1.229,44.026,19.261,52.289,34.059,5.04,9.026,17.489,40.185-1.959,38.392-9.85-.908-8.677-16.497-12.491-25.115-4.147-9.371-13.391-18.666-22.522-23.267-4.807-2.423-19.062-5.439-21.308-8.044-4.531-5.253-1.959-15.462,5.992-16.023Z" fill="#fe056a"/><path d="M117.246,297.279c13.316-4.026,13.34,12.634,16.947,21.314,6.186,14.885,16.504,24.369,31.939,29.113,7.193,2.211,16.135-.172,16.139,10.97.005,14.356-19.73,7.958-28.264,4.677-15.994-6.15-29.239-19.87-36.249-35.369-3.18-7.031-11.564-27.363-.512-30.704Z" fill="#fe0569"/><path d="M271.699,177.209c-7.494-4.537-16.447-6.945-25.042-6.94-.859,0-1.714.024-2.564.072-11.291.637-20.54,3.731-28.007,7.817-7.463,4.086-13.139,9.183-17.143,13.805-2.902,3.335-6.027,8.83-8.342,15.501-2.326,6.675-3.877,14.537-3.876,22.705,0,5.673.744,11.492,2.473,17.198,3.054,10.078,9.146,18.971,17.381,25.909,8.232,6.936,18.602,11.899,30.136,14.072,3.287.62,6.59.892,9.85.892,8.395.003,16.511-1.815,23.224-4.064,6.709-2.243,12.027-4.919,14.778-6.509.781-.45,1.361-.819,1.647-1.019,2.019-1.4,4.097-2.869,5.844-4.428,1.752-1.556,3.139-3.192,3.907-4.815.516-1.088.786-2.159.789-3.357,0-.778-.118-1.619-.406-2.568-.442-1.437-1.018-2.285-1.62-2.865-.607-.574-1.289-.925-2.153-1.146-.573-.144-1.219-.217-1.911-.216-1.698-.007-3.65.458-5.214,1.038-4.901,1.801-8.823,3.829-12.634,5.74-3.805,1.904-7.524,3.713-11.881,4.848-3.341.869-7.025,1.389-10.999,1.389-7.261.003-15.48-1.744-24.313-6.164-3.255-1.628-6.086-3.833-8.491-6.37-2.407-2.538-4.394-5.407-5.984-8.406-3.172-6.007-4.791-12.509-4.802-18.205,0-.134,0-.267.003-.401.097-6.77,1.711-13.573,4.585-19.664,2.878-6.086,7.024-11.478,12.3-15.307,3.043-2.204,6.468-4.224,10.235-5.708,3.765-1.482,7.882-2.424,12.242-2.424,3.871-.002,7.923.75,12.004,2.466,5.774,2.419,9.675,5.513,12.159,8.9,2.491,3.381,3.483,6.965,3.801,10.031.059.558.089,1.101.089,1.633.002,1.829-.364,3.533-1.131,4.998-.759,1.467-1.915,2.638-3.21,3.427-.864.531-1.784.906-2.72,1.163-1.25.343-2.529.481-3.807.481-3.147-.01-6.322-.818-9.118-2.069l-.177-.08-.166-.101h0l-.017-.01-.091-.053c-.084-.049-.214-.124-.383-.218-.338-.189-.835-.456-1.435-.752-1.198-.593-2.825-1.299-4.379-1.736-1.032-.295-2.03-.46-2.774-.457-.567-.002-.964.091-1.177.186-.216.105-.279.153-.419.352-.089.138-.203.37-.297.774-.067.291-.097.565-.097.841.002.583.133,1.194.472,1.922.338.723.894,1.547,1.695,2.426,1.596,1.763,4.16,3.708,7.469,5.633,1.771,1.034,3.973,2.003,6.408,2.7,2.436.699,5.104,1.129,7.829,1.129,2.979,0,6.02-.508,8.976-1.721,2.956-1.216,5.842-3.131,8.545-6.06,1.483-1.608,3.104-3.859,4.334-6.638,1.232-2.783,2.085-6.085,2.086-9.907-.001-3.014-.53-6.362-1.877-10.07-3.076-8.454-9.1-15.057-16.604-19.6Z" fill="#fe066a"/></svg>